<?xml version="1.0" encoding="UTF-8"?>
<svg version="1.1" xmlns="http://www.w3.org/2000/svg" width="1080" height="1080">
<path d="M0 0 C113.85 0 227.7 0 345 0 C345.28231944 114.94434484 345.28231944 114.94434484 345.34179688 162.8671875 C345.35463027 173.13875881 345.36775008 183.41032966 345.38168196 193.68189955 C345.38357084 195.07515954 345.38544944 196.46841954 345.38731762 197.86167955 C345.41719397 220.07930486 345.4697266 242.2968056 345.53408055 264.51435559 C345.60196299 287.99268675 345.64396715 311.47090696 345.65861946 334.94934261 C345.66823747 349.01748701 345.69864459 363.08527411 345.75541527 377.15330856 C345.79233883 386.79255428 345.80361842 396.43161455 345.79450964 406.07092591 C345.79001386 411.63734696 345.79703727 417.20314246 345.83443832 422.76945305 C345.86841027 427.86246447 345.87028496 432.95442754 345.84629226 438.04748641 C345.84332543 439.89282406 345.85228567 441.73822614 345.87418228 443.58343627 C346.02791882 457.33495756 346.02791882 457.33495756 343.49079144 461.44464469 C340.59786967 464.07824422 338.94827395 465 335 465 C335 465.66 335 466.32 335 467 C333.53344727 468.46069336 333.53344727 468.46069336 331.50390625 470.15234375 C327.18390803 473.82685773 323.0520361 477.66075138 318.9375 481.5625 C317.44164222 482.97551027 315.94554383 484.38826585 314.44921875 485.80078125 C313.70462402 486.50412598 312.9600293 487.2074707 312.19287109 487.93212891 C303.81738958 495.83018373 295.37992984 503.66199694 286.91308594 511.46191406 C282.11668481 515.88373353 277.34945565 520.33641787 272.58374023 524.79125977 C268.59046914 528.52183591 264.5829724 532.23627106 260.5625 535.9375 C255.68246351 540.43099894 250.83541966 544.95854079 246 549.5 C240.64458945 554.52983821 235.26861146 559.53559591 229.86328125 564.51171875 C225.7254898 568.32337885 221.60984858 572.15824194 217.5 576 C212.84741339 580.34878297 208.18383829 584.68489401 203.5 589 C186.89447293 603.47513381 186.89447293 603.47513381 172 619.5625 C169.56704273 622.52766668 166.80601935 624.87864994 163.88671875 627.35546875 C161.87692732 629.0467755 161.87692732 629.0467755 159.8125 631.375 C157.49520181 633.45257769 156.10851614 633.92418253 153 634 C148.53503947 631.90183156 146.49346936 629.24267142 143.875 625.125 C143.21242188 624.09632813 142.54984375 623.06765625 141.8671875 622.0078125 C140.71546315 620.15252433 139.58652226 618.28258928 138.49609375 616.390625 C136.91937269 613.87116472 135.19624719 611.81426558 133.1875 609.625 C132.39472656 608.75875 131.60195313 607.8925 130.78515625 607 C126.96719038 602.87910959 123.13438525 598.7719556 119.2956543 594.67041016 C115.67421638 590.80060896 112.0751414 586.91261788 108.5 583 C104.38169726 578.49466147 100.23117698 574.02125073 96.0625 569.5625 C89.18891483 562.21062241 82.35964235 554.81883527 75.54101562 547.41601562 C69.69439195 541.06981396 63.83056438 534.74062812 57.9375 528.4375 C52.87103616 523.0184907 47.84509 517.56548025 42.83984375 512.08984375 C39.60353772 508.55943252 36.33331669 505.06091361 33.0625 501.5625 C26.67917172 494.73499339 20.33255256 487.87458306 14 481 C11.79221232 478.60366308 9.58376306 476.20793787 7.375 473.8125 C6.61098877 472.98274658 6.61098877 472.98274658 5.83154297 472.13623047 C3.91622838 470.05907669 1.99811479 467.99811479 0 466 C-0.19525165 463.45603619 -0.26410752 461.02120649 -0.24609566 458.47620964 C-0.24840335 457.68711981 -0.25071103 456.89802999 -0.25308865 456.08502835 C-0.25842722 453.41271256 -0.24937281 450.74063266 -0.24050903 448.06832886 C-0.24138031 446.1444452 -0.24312986 444.22056177 -0.24568737 442.29667962 C-0.25018017 436.98803485 -0.24213081 431.6794701 -0.23213124 426.37083554 C-0.22352674 420.65438916 -0.22641477 414.93794761 -0.22793579 409.22149658 C-0.22898655 399.31006672 -0.22269006 389.3986631 -0.21146011 379.48723984 C-0.19523386 365.15683444 -0.19000006 350.82644179 -0.18748413 336.4960282 C-0.1831025 313.24815861 -0.16979786 290.00030334 -0.15087891 266.75244141 C-0.13251769 244.16390046 -0.11838052 221.57536329 -0.10986328 198.98681641 C-0.109322 197.56699781 -0.10878059 196.14717921 -0.10823905 194.72736061 C-0.10406807 183.73514596 -0.1001665 172.74293122 -0.09632993 161.75071645 C-0.07744879 107.83379811 -0.03721545 53.91691482 0 0 Z M34 31 C34 51.13 34 71.26 34 92 C34.66 92 35.32 92 36 92 C35.99544336 92.7593084 35.99088671 93.51861681 35.98619199 94.30093455 C35.71756716 139.31877699 35.51171747 184.33653212 35.38721605 229.35501562 C35.37220784 234.76223181 35.35667594 240.16944638 35.34082031 245.57666016 C35.33767259 246.65312436 35.33452486 247.72958857 35.33128175 248.83867291 C35.27908711 266.26134086 35.1844845 283.68353294 35.07416645 301.10591874 C34.96188786 318.98726321 34.89528211 336.86835873 34.87093806 354.75004125 C34.85448449 365.78143275 34.80255016 376.81147918 34.7050024 387.84245655 C34.64149532 395.41021265 34.62241515 402.97727497 34.63798347 410.5452781 C34.64565924 414.91011108 34.63402654 419.27259677 34.5695343 423.63701057 C34.51082429 427.63949362 34.50836802 431.63806859 34.54921326 435.64073744 C34.55425488 437.08247424 34.53927469 438.52446193 34.50140181 439.96571001 C34.31566585 447.47522423 34.99550113 452.62743025 40.20804934 458.10608985 C42.7202593 460.51018291 45.35307104 462.74491872 48 465 C49.29730935 466.39553778 50.57351984 467.81201052 51.80078125 469.26953125 C55.14668139 473.18976541 58.64785112 476.94219345 62.1875 480.6875 C63.51080806 482.0933817 64.83371972 483.49963661 66.15625 484.90625 C66.8059375 485.5971875 67.455625 486.288125 68.125 487 C70.82719241 489.88233857 73.51026048 492.78199294 76.1875 495.6875 C76.6719458 496.2131958 77.1563916 496.7388916 77.65551758 497.28051758 C79.10408905 498.85330084 80.55206724 500.42662873 82 502 C88.31150312 508.85388137 94.63832682 515.69262667 101 522.5 C107.85182202 529.8318621 114.66033123 537.20284957 121.45898438 544.58398438 C127.88955076 551.56402505 134.34638531 558.51837015 140.828125 565.45092773 C146.25832226 571.26454916 151.63790695 577.12358374 157 583 C162.05296851 581.52817058 164.79859563 578.51860366 168.3125 574.8125 C172.36509074 570.59248753 176.51254741 566.61867899 180.94458008 562.79711914 C184.44961893 559.73255197 187.81059027 556.51675806 191.1875 553.3125 C196.30851722 548.47257543 201.43899457 543.64528055 206.625 538.875 C211.26867763 534.60310703 215.89072056 530.308993 220.5 526 C225.13091114 521.67109198 229.77371087 517.35596344 234.4375 513.0625 C239.31753649 508.56900106 244.16458034 504.04145921 249 499.5 C254.35541055 494.47016179 259.73138854 489.46440409 265.13671875 484.48828125 C269.27451063 480.67662075 273.39010004 476.84170358 277.5 473 C283.15346627 467.71696817 288.8245224 462.45372553 294.51171875 457.20703125 C295.01919718 456.71983732 295.52667561 456.23264339 296.04953218 455.73068601 C298 454 298 454 300.91358542 451.87695092 C305.67564887 448.26022822 309.35971851 445.13700204 311.11395311 439.28207266 C311.67540229 434.87254303 311.57161845 430.47111178 311.48101807 426.03608704 C311.49039422 424.32714004 311.50503857 422.61821529 311.52446246 420.90935296 C311.56247211 416.23564399 311.5261882 411.56506461 311.47733045 406.8915664 C311.43772717 401.84389552 311.46763432 396.7965701 311.4889679 391.74885559 C311.51644547 383.01096751 311.50018451 374.27404624 311.4539566 365.53624916 C311.38718402 352.90315902 311.38677709 340.27074716 311.40240797 327.637522 C311.42597443 307.13975965 311.39609798 286.64243908 311.33251953 266.14477539 C311.27088498 246.23685813 311.23461538 226.32915862 311.23193359 206.42114258 C311.2316359 204.56074767 311.2316359 204.56074767 311.23133218 202.66276902 C311.22997764 192.96265392 311.2300911 183.26253898 311.23066831 173.56242383 C311.23312038 126.04128386 311.10756565 78.52126432 311 31 C219.59 31 128.18 31 34 31 Z " fill="#000000" transform="translate(369,170)"/>
<path d="M0 0 C1.2890625 -0.01546875 2.578125 -0.0309375 3.90625 -0.046875 C14.81657259 -0.0025241 25.42366133 2.27523333 34 9.5 C34 10.16 34 10.82 34 11.5 C34.53625 11.726875 35.0725 11.95375 35.625 12.1875 C39.74700263 14.46544882 43.46706157 16.90118471 45 21.5 C45.515625 22.015625 46.03125 22.53125 46.5625 23.0625 C47.036875 23.536875 47.51125 24.01125 48 24.5 C48 25.16 48 25.82 48 26.5 C48.66 26.5 49.32 26.5 50 26.5 C51 28.83333333 52 31.16666667 53 33.5 C53.75627686 35.07285767 53.75627686 35.07285767 54.52783203 36.67749023 C56.93375543 42.31805766 56.55792452 48.27442057 56.5559082 54.30322266 C56.56240498 56.46833335 56.61676918 58.62868082 56.67382812 60.79296875 C56.79512629 71.17573618 54.49195156 79.17506486 50 88.5 C49.34 88.5 48.68 88.5 48 88.5 C47.9175 89.056875 47.835 89.61375 47.75 90.1875 C45.79230114 96.22373814 39.94884924 100.78300717 35 104.5 C34.34 104.5 33.68 104.5 33 104.5 C33 105.16 33 105.82 33 106.5 C27.25 109.5 27.25 109.5 25 109.5 C25 110.16 25 110.82 25 111.5 C13.13909493 117.44371977 -3.54844687 117.79130293 -16.28515625 114.59375 C-18.96201946 113.70039875 -21.47943818 112.76310033 -24 111.5 C-24 110.84 -24 110.18 -24 109.5 C-24.825 109.29375 -25.65 109.0875 -26.5 108.875 C-30.89143822 107.14979213 -34.54681549 104.72530939 -38 101.5 C-38 100.84 -38 100.18 -38 99.5 C-38.88945312 99.12875 -38.88945312 99.12875 -39.796875 98.75 C-42.3343262 97.31031137 -43.54044102 95.84848507 -45.25 93.5 C-46.03117187 92.448125 -46.03117187 92.448125 -46.828125 91.375 C-48 89.5 -48 89.5 -48 87.5 C-48.66 87.5 -49.32 87.5 -50 87.5 C-50.63121136 86.14871743 -51.25459835 84.79377953 -51.875 83.4375 C-52.22304688 82.68339844 -52.57109375 81.92929687 -52.9296875 81.15234375 C-56.07509705 73.35769745 -56.33531324 66.56908274 -56.3125 58.1875 C-56.33666992 56.42889648 -56.33666992 56.42889648 -56.36132812 54.63476562 C-56.36693222 44.59783452 -54.13291659 36.55305538 -50 27.5 C-49.34 27.5 -48.68 27.5 -48 27.5 C-47.67 26.18 -47.34 24.86 -47 23.5 C-46.34 23.5 -45.68 23.5 -45 23.5 C-44.34 21.85 -43.68 20.2 -43 18.5 C-42.34 18.5 -41.68 18.5 -41 18.5 C-40.938125 17.901875 -40.87625 17.30375 -40.8125 16.6875 C-39.67020358 13.61208657 -37.82171939 13.04522728 -35 11.5 C-34.525625 10.984375 -34.05125 10.46875 -33.5625 9.9375 C-31.33095057 7.88447453 -28.87471249 7.3304725 -26 6.5 C-26 5.84 -26 5.18 -26 4.5 C-17.28095535 0.52114283 -9.50488385 -0.11405861 0 0 Z M-12 39.5 C-12 40.16 -12 40.82 -12 41.5 C-13.98 42.49 -13.98 42.49 -16 43.5 C-16 44.49 -16 45.48 -16 46.5 C-16.66 46.5 -17.32 46.5 -18 46.5 C-20.62610026 52.57285685 -21.31547232 59.54710287 -19.20703125 65.8828125 C-17.57600539 69.26984705 -15.87358428 72.02615316 -13 74.5 C-12.34 74.5 -11.68 74.5 -11 74.5 C-11 75.16 -11 75.82 -11 76.5 C-1.99155119 79.93179002 4.05637465 80.26573699 13 76.5 C13 75.84 13 75.18 13 74.5 C14.11375 74.2525 14.11375 74.2525 15.25 74 C19.30134364 71.7901762 20.48489525 68.75279403 22 64.5 C23.75071089 57.81431421 22.25198854 52.72881256 19.8125 46.4375 C16.95102191 41.79993207 13.20836213 38.23612071 8 36.5 C5.73236426 36.35351918 3.45967634 36.2790374 1.1875 36.25 C-0.01519531 36.22421875 -1.21789062 36.1984375 -2.45703125 36.171875 C-6.28988045 36.5268467 -8.69715027 37.57797413 -12 39.5 Z " fill="#020202" transform="translate(540,519.5)"/>
<path d="M0 0 C3.21557681 1.38634862 5.04597425 2.9253508 7.26953125 5.61328125 C10.93729182 9.94488989 14.78145048 14.07093336 18.6875 18.1875 C25.02970111 24.89880842 31.32383634 31.6505677 37.57324219 38.44824219 C40.00472086 41.09274568 42.43934734 43.7343409 44.875 46.375 C45.36444092 46.90569092 45.85388184 47.43638184 46.3581543 47.9831543 C50.24359794 52.19128199 54.15088854 56.37870247 58.0625 60.5625 C63.12896384 65.9815093 68.15491 71.43451975 73.16015625 76.91015625 C76.39646228 80.44056748 79.66668331 83.93908639 82.9375 87.4375 C89.81108517 94.78937759 96.64035765 102.18116473 103.45898438 109.58398438 C104.93060186 111.18134754 106.40264851 112.77831337 107.875 114.375 C108.36282959 114.90407959 108.85065918 115.43315918 109.35327148 115.97827148 C112.67851128 119.58020928 116.02074689 123.16584315 119.37036133 126.74511719 C122.25198837 129.82535698 125.12805931 132.91072801 128 136 C128.71542969 136.76932861 128.71542969 136.76932861 129.4453125 137.55419922 C130.69800411 138.90624539 131.94303321 140.26537963 133.1875 141.625 C133.86167969 142.35976563 134.53585937 143.09453125 135.23046875 143.8515625 C137.09469456 146.11497132 138.55604079 148.45183669 140 151 C136.77197131 149.61003228 134.93647118 148.05571566 132.703125 145.359375 C129.17723288 141.19514246 125.49792063 137.21425082 121.75 133.25 C116.38999602 127.55759267 111.077403 121.82807629 105.8046875 116.0546875 C102.58160739 112.53459209 99.32215506 109.04869821 96.0625 105.5625 C89.18888254 98.21065287 82.35964209 90.81883499 75.54101562 83.41601562 C69.69439195 77.06981396 63.83056438 70.74062812 57.9375 64.4375 C52.87103616 59.0184907 47.84509 53.56548025 42.83984375 48.08984375 C39.60353772 44.55943252 36.33331669 41.06091361 33.0625 37.5625 C28.16368945 32.32281 23.27601635 27.07346968 18.4206543 21.79345703 C15.84714355 18.99535371 13.26157678 16.20994201 10.65625 13.44140625 C10.10727051 12.85504395 9.55829102 12.26868164 8.99267578 11.66455078 C7.94267207 10.54355377 6.88915501 9.42583345 5.83154297 8.31201172 C3.39424478 5.70198507 1.35637214 3.32710108 0 0 Z " fill="#D2D2D2" transform="translate(369,634)"/>
<path d="M0 0 C6.21143638 5.19732432 11.97614595 10.60796096 17.26953125 16.74609375 C20.81568487 20.81784636 24.47915513 24.76369604 28.1875 28.6875 C29.51080806 30.0933817 30.83371972 31.49963661 32.15625 32.90625 C32.8059375 33.5971875 33.455625 34.288125 34.125 35 C36.82719241 37.88233857 39.51026048 40.78199294 42.1875 43.6875 C42.6719458 44.2131958 43.1563916 44.7388916 43.65551758 45.28051758 C45.10408905 46.85330084 46.55206724 48.42662873 48 50 C54.31150312 56.85388137 60.63832682 63.69262667 67 70.5 C73.85182202 77.8318621 80.66033123 85.20284957 87.45898438 92.58398438 C92.71251884 98.28641898 97.97465213 103.98018266 103.26953125 109.64428711 C105.61474169 112.15331739 107.95655593 114.66550626 110.29833984 117.17773438 C111.42706451 118.38645761 112.55758253 119.59350883 113.68994141 120.79882812 C115.25604592 122.46598666 116.81610298 124.13860448 118.375 125.8125 C119.26960937 126.76769531 120.16421875 127.72289062 121.0859375 128.70703125 C123 131 123 131 123 133 C122.34 133 121.68 133 121 133 C119.52612305 131.52026367 119.52612305 131.52026367 117.82421875 129.48046875 C114.27179026 125.30367961 110.57811436 121.29684312 106.8125 117.3125 C105.48657708 115.90402425 104.16106119 114.49516522 102.8359375 113.0859375 C102.18592773 112.39467773 101.53591797 111.70341797 100.86621094 110.99121094 C98.20752363 108.15444306 95.57016954 105.29839962 92.9375 102.4375 C88.62451399 97.75162496 84.28747405 93.08905654 79.9375 88.4375 C74.87222037 83.01990096 69.84741193 77.56834482 64.84375 72.09375 C61.5863524 68.54022535 58.29295488 65.02054571 55 61.5 C49.91344425 56.06188964 44.86732575 50.59013288 39.84375 45.09375 C36.58635206 41.54022497 33.29292446 38.02057466 30 34.5 C24.88444547 29.03002545 19.79960383 23.53447603 14.75390625 18 C12.7385534 15.79471474 10.70040622 13.61243359 8.65234375 11.4375 C8.09562988 10.84340332 7.53891602 10.24930664 6.96533203 9.63720703 C5.88309443 8.48335311 4.79696623 7.3331331 3.70654297 6.18701172 C0 2.22408001 0 2.22408001 0 0 Z " fill="#D5D5D5" transform="translate(404,622)"/>
<path d="M0 0 C6.42895555 5.11394191 11.80364654 11.0959619 17.31152344 17.15429688 C20.24233685 20.35802004 23.21818706 23.51951041 26.1875 26.6875 C28.4611432 29.12239229 30.73174043 31.56009211 33 34 C33.47695313 34.51288574 33.95390625 35.02577148 34.4453125 35.55419922 C35.69800411 36.90624539 36.94303321 38.26537963 38.1875 39.625 C39.19876953 40.72714844 39.19876953 40.72714844 40.23046875 41.8515625 C42.09469456 44.11497132 43.55604079 46.45183669 45 49 C41.77197131 47.61003228 39.93647118 46.05571566 37.703125 43.359375 C34.17722813 39.19513684 30.49783885 35.21433473 26.75 31.25 C20.44360158 24.54989109 14.18845763 17.80927424 8 11 C7.19046875 10.11957031 6.3809375 9.23914063 5.546875 8.33203125 C4.80953125 7.52121094 4.0721875 6.71039062 3.3125 5.875 C2.66925781 5.17117188 2.02601563 4.46734375 1.36328125 3.7421875 C0 2 0 2 0 0 Z " fill="#D2D2D2" transform="translate(464,736)"/>
<path d="M0 0 C7.6978616 6.19175825 15.16084775 13.31152209 20 22 C16.8376284 20.62803835 15.0063782 19.1434878 12.8125 16.5 C9.23427877 12.25280698 5.49846511 8.17363683 1.72265625 4.1015625 C0 2 0 2 0 0 Z " fill="#B8B8B8" transform="translate(489,763)"/>
<path d="M0 0 C7.48291572 6.15034169 7.48291572 6.15034169 10 10 C9.67 10.66 9.34 11.32 9 12 C1.33257403 4.88610478 1.33257403 4.88610478 0 0 Z " fill="#D0D0D0" transform="translate(485,709)"/>
<path d="M0 0 C3.01217112 0.64449607 5.51655836 1.65022182 8.25 3.0625 C8.95640625 3.42472656 9.6628125 3.78695312 10.390625 4.16015625 C10.92171875 4.43730469 11.4528125 4.71445312 12 5 C12 5.99 12 6.98 12 8 C11.505 7.54625 11.01 7.0925 10.5 6.625 C7.10524051 4.41840633 3.95116502 3.85608575 0 3 C0 2.01 0 1.02 0 0 Z " fill="#555555" transform="translate(543,553)"/>
</svg>
